# xmcd
#
# Track frame offsets:
# 150
# 21092
# 41332
# 64207
# 83835
# 97805
# 113047
# 132675
# 150682
# 168782
#
# Disc length: 2475 seconds
#
#
# Revision: 0
# Processed by: cddbd v1.5.2PL0 Copyright (c) Steve Scherf et al.
# Submitted via: FreeRIP 2.96 
#
DISCID=7509a90a
DTITLE=EL REY YA VIENE - EBEN-EZER
DYEAR=1900
DGENRE=
TTITLE0=EL REY YA VIENE
TTITLE1=ORACION DE UN SIERVO
TTITLE2=QUE ES EL HOMBRE
TTITLE3=MI JESUS
TTITLE4=QUE PRIVILEGIO
TTITLE5=CRISTO MI SALVADOR
TTITLE6=EL ME BUSCO
TTITLE7=CRISTO MI SALVADOR
TTITLE8=OH NO CEDAS
TTITLE9=AQUI LLEGAMOS POR LA FE
EXTD=
EXTT0=
EXTT1=
EXTT2=
EXTT3=
EXTT4=
EXTT5=
EXTT6=
EXTT7=
EXTT8=
EXTT9=
PLAYORDER=
